#N canvas 602 22 639 622 10;
#X obj 126 412 cnv 15 100 40 empty empty empty 20 12 0 14 -4034 -66577
0;
#X msg 140 503 disconnect;
#X floatatom 193 458 5 0 0 0 - - -;
#X msg -78 435 connect 192.168.111.222 10000;
#X msg -37 302 /mode 1;
#X obj 165 10 vsl 15 128 0 1 0 0 empty empty empty 0 -9 0 10 -258113
-1 -1 0 1;
#X obj 200 10 vsl 15 128 0 1 0 0 empty empty empty 0 -9 0 10 -4034
-1 -1 0 1;
#X obj 238 10 vsl 15 128 0 1 0 0 empty empty empty 0 -9 0 10 -4160
-1 -1 0 1;
#X msg 158 249 sendtyped /knbg f \$1;
#X msg 74 185 sendtyped /knbr f \$1;
#X msg 283 202 sendtyped /knbb f \$1;
#X obj 74 162 pack f;
#X obj 158 226 pack f;
#X obj 283 179 pack f;
#X obj 434 149 vsl 15 128 0 1 0 0 empty empty empty 0 -9 0 10 -4160
-1 -1 0 1;
#X obj 369 311 pack f;
#X msg 369 341 sendtyped /delay f \$1;
#X msg -17 257 /modd 7;
#X obj 121 542 mrpeach/udpsend;
#X obj 129 424 mrpeach/packOSC;
#X connect 1 0 18 0;
#X connect 3 0 18 0;
#X connect 4 0 19 0;
#X connect 5 0 11 0;
#X connect 6 0 12 0;
#X connect 7 0 13 0;
#X connect 8 0 19 0;
#X connect 9 0 19 0;
#X connect 10 0 19 0;
#X connect 11 0 9 0;
#X connect 12 0 8 0;
#X connect 13 0 10 0;
#X connect 14 0 15 0;
#X connect 15 0 16 0;
#X connect 16 0 19 0;
#X connect 17 0 19 0;
#X connect 19 0 18 0;
#X connect 19 1 2 0;
